# xmcd CD database file
#
# Track frame offsets:
#	150
#	7748
#	15903
#	25375
#	35822
#	43304
#	50549
#	60360
#	68947
#	81577
#	90266
#	100980
#	110739
#	120844
#	132115
#	142770
#	153910
#	164786
#	177030
#	187867
#	197968
#	207932
#
# Disc length: 2911 seconds
#
# Revision: 1
# Processed by: cddbd v1.5.2PL0 Copyright (c) Steve Scherf et al.
# Submitted via: CDex 1.51
#
DISCID=210b5d16
DTITLE=Reg Hill - Ottawa Valley Fiddlin'
DYEAR=1900
DGENRE=Country
TTITLE0=Madawaska River Breakdown
TTITLE1=Road to Fort Coulonge
TTITLE2=Uncle John McDermid's Reel
TTITLE3=Lake Kamaniskeg Waltz
TTITLE4=Sleigh Ride Reel
TTITLE5=Pembroke Centennial Breakdown
TTITLE6=Allumette Island Hornpipe
TTITLE7=Puffin' On The Ole Cigar
TTITLE8=Dancing Waters Waltz
TTITLE9=Wally On The Deer Trail
TTITLE10=The Kiddy Car Reel
TTITLE11=The Timber Raft Jig
TTITLE12=Avonmore Breakdown
TTITLE13=Waltz Promenade
TTITLE14=Bonnechere Point Strathspey
TTITLE15=Dad's Breakdown
TTITLE16=The Long Sault Hornpipe
TTITLE17=Clayton Poirier Two-Step
TTITLE18=The Hangman's Waltz
TTITLE19=Scrambled Eggs
TTITLE20=Musty Muldoon's Irish Jig
TTITLE21=The Broadaxe Breakdown
EXTD=
EXTT0=
EXTT1=
EXTT2=
EXTT3=
EXTT4=
EXTT5=
EXTT6=
EXTT7=
EXTT8=
EXTT9=
EXTT10=
EXTT11=
EXTT12=
EXTT13=
EXTT14=
EXTT15=
EXTT16=
EXTT17=
EXTT18=
EXTT19=
EXTT20=
EXTT21=
PLAYORDER=
